<svg width="43" height="38" viewBox="0 0 43 38" fill="none" xmlns="http://www.w3.org/2000/svg">
<path d="M42.6542 16.2858C42.6093 15.8622 42.3846 15.5327 42.0701 15.2973L33.847 9.13134V2.77706C33.847 1.92982 33.173 1.22379 32.3642 1.22379C31.5554 1.22379 30.8813 1.92982 30.8813 2.77706V6.87204L22.164 0.282412C21.6697 -0.0941375 20.9508 -0.0941375 20.4565 0.282412L0.595384 15.2973C0.280842 15.5327 0.0561683 15.9092 0.0112337 16.2858C-0.033701 16.7094 0.0561684 17.086 0.280842 17.4154C0.730188 18.1215 1.62888 18.2627 2.3029 17.792L5.31352 15.4856V35.9605C5.31352 36.8078 5.98754 37.5138 6.79637 37.5138H35.8242C36.633 37.5138 37.307 36.8078 37.307 35.9605V15.4856L40.3176 17.792C40.9467 18.2627 41.8903 18.1215 42.3846 17.4625C42.6093 17.086 42.6991 16.7094 42.6542 16.2858ZM34.3862 34.4073H8.23427V13.2734L8.36908 13.1322L21.3103 3.38895L34.3862 13.2734V34.4073Z" fill="#268FB4"/>
</svg>
